<svg width="34" height="22" viewBox="0 0 34 22" fill="none" xmlns="http://www.w3.org/2000/svg">
<path d="M17.5173 14.8025C17.5173 12.184 16.2718 10.2485 13.6987 9.52305C15.5761 8.62898 16.5552 7.27442 16.5552 5.16747C16.5552 1.01309 13.4493 0 9.86594 0H0V20.8583H10.1422C13.9452 20.8583 17.5173 19.0404 17.5173 14.8025ZM4.59929 3.56069H8.9152C10.5744 3.56069 12.0678 4.02544 12.0678 5.94394C12.0678 7.71507 10.906 8.42778 9.26234 8.42778H4.59929V3.56069ZM4.59787 17.3161V11.5719H9.6109C11.6357 11.5719 12.9166 12.4135 12.9166 14.5502C12.9166 16.6572 11.3877 17.3161 9.51597 17.3161H4.59787Z" fill="white"/>
<path d="M26.6322 21.2536C30.251 21.2536 32.5946 19.6284 33.7224 16.1739H30.0498C29.6545 17.4633 28.0251 18.1449 26.7612 18.1449C24.3227 18.1449 23.0418 16.7209 23.0418 14.3008H33.9704C34.3161 9.45778 31.6183 5.33032 26.6308 5.33032C22.0131 5.33032 18.8789 8.79042 18.8789 13.3231C18.8789 18.0273 21.8487 21.2536 26.6322 21.2536V21.2536ZM26.5019 8.46453C28.5918 8.46453 29.6432 9.68874 29.8189 11.6908H23.0475C23.1849 9.70574 24.5069 8.46453 26.5019 8.46453Z" fill="white"/>
<path d="M22.1982 1.09521H30.6827V3.14973H22.1982V1.09521Z" fill="white"/>
</svg>
