<svg width="38" height="38" viewBox="0 0 38 38" fill="none" xmlns="http://www.w3.org/2000/svg">
<path d="M20.5837 25.3333H4.75033C4.3304 25.3333 3.92767 25.5001 3.63074 25.7971C3.33381 26.094 3.16699 26.4967 3.16699 26.9167C3.16699 27.3366 3.33381 27.7393 3.63074 28.0363C3.92767 28.3332 4.3304 28.5 4.75033 28.5H20.5837C21.0036 28.5 21.4063 28.3332 21.7032 28.0363C22.0002 27.7393 22.167 27.3366 22.167 26.9167C22.167 26.4967 22.0002 26.094 21.7032 25.7971C21.4063 25.5001 21.0036 25.3333 20.5837 25.3333ZM4.75033 12.6667H33.2503C33.6703 12.6667 34.073 12.4999 34.3699 12.2029C34.6668 11.906 34.8337 11.5033 34.8337 11.0833C34.8337 10.6634 34.6668 10.2607 34.3699 9.96375C34.073 9.66682 33.6703 9.5 33.2503 9.5H4.75033C4.3304 9.5 3.92767 9.66682 3.63074 9.96375C3.33381 10.2607 3.16699 10.6634 3.16699 11.0833C3.16699 11.5033 3.33381 11.906 3.63074 12.2029C3.92767 12.4999 4.3304 12.6667 4.75033 12.6667ZM33.2503 17.4167H4.75033C4.3304 17.4167 3.92767 17.5835 3.63074 17.8804C3.33381 18.1773 3.16699 18.5801 3.16699 19C3.16699 19.4199 3.33381 19.8227 3.63074 20.1196C3.92767 20.4165 4.3304 20.5833 4.75033 20.5833H33.2503C33.6703 20.5833 34.073 20.4165 34.3699 20.1196C34.6668 19.8227 34.8337 19.4199 34.8337 19C34.8337 18.5801 34.6668 18.1773 34.3699 17.8804C34.073 17.5835 33.6703 17.4167 33.2503 17.4167Z" fill="#F26B4A"/>
</svg>
