<svg width="27" height="28" viewBox="0 0 27 28" fill="none" xmlns="http://www.w3.org/2000/svg">
<path d="M26.9314 7.93961C26.8681 6.50472 26.6361 5.51824 26.3037 4.66345C25.9608 3.75611 25.4332 2.94376 24.742 2.26846C24.0667 1.58265 23.249 1.04974 22.3522 0.712191C21.4925 0.379794 20.5111 0.147755 19.0763 0.0844902C17.6306 0.0158677 17.1717 0 13.5053 0C9.83879 0 9.37986 0.0158677 7.93961 0.0791323C6.50472 0.142397 5.51825 0.374642 4.66366 0.706833C3.75611 1.04974 2.94376 1.57729 2.26846 2.26846C1.58265 2.94376 1.04995 3.76146 0.712191 4.6583C0.379794 5.51824 0.147755 6.49936 0.0844902 7.93425C0.0158677 9.37986 0 9.83879 0 13.5053C0 17.1717 0.0158677 17.6306 0.0791324 19.0709C0.142397 20.5058 0.374642 21.4923 0.707039 22.3471C1.04995 23.2544 1.58265 24.0667 2.26846 24.742C2.94376 25.4279 3.76147 25.9608 4.6583 26.2983C5.51825 26.6307 6.49936 26.8627 7.93446 26.926C9.3745 26.9895 9.83364 27.0051 13.5001 27.0051C17.1666 27.0051 17.6255 26.9895 19.0657 26.926C20.5006 26.8627 21.4871 26.6307 22.3417 26.2983C24.1566 25.5966 25.5915 24.1617 26.2932 22.3471C26.6254 21.4871 26.8576 20.5058 26.9209 19.0709C26.9841 17.6306 27 17.1717 27 13.5053C27 9.83879 26.9946 9.37986 26.9314 7.93961ZM24.4995 18.9654C24.4414 20.2843 24.2199 20.9964 24.0352 21.4712C23.5814 22.6477 22.6477 23.5814 21.4712 24.0352C20.9965 24.2199 20.2791 24.4414 18.9654 24.4993C17.541 24.5628 17.1138 24.5784 13.5106 24.5784C9.90741 24.5784 9.47486 24.5628 8.05563 24.4993C6.73676 24.4414 6.02457 24.2199 5.54977 24.0352C4.96432 23.8188 4.43141 23.4759 3.99886 23.0275C3.55045 22.5896 3.20754 22.0621 2.99116 21.4766C2.80652 21.0018 2.58499 20.2843 2.52708 18.9707C2.46361 17.5464 2.44795 17.119 2.44795 13.5158C2.44795 9.91256 2.46361 9.48001 2.52708 8.06099C2.58499 6.74212 2.80652 6.02993 2.99116 5.55513C3.20754 4.96947 3.55045 4.43677 4.00422 4.00401C4.44192 3.5556 4.96947 3.21269 5.55513 2.99652C6.02993 2.81188 6.74748 2.59035 8.06099 2.53223C9.48537 2.46897 9.91277 2.4531 13.5158 2.4531C17.1243 2.4531 17.5515 2.46897 18.9707 2.53223C20.2896 2.59035 21.0018 2.81188 21.4766 2.99652C22.0621 3.21269 22.595 3.5556 23.0275 4.00401C23.4759 4.44192 23.8188 4.96947 24.0352 5.55513C24.2199 6.02993 24.4414 6.74727 24.4995 8.06099C24.5628 9.48537 24.5786 9.91256 24.5786 13.5158C24.5786 17.119 24.5628 17.541 24.4995 18.9654Z" fill="white"/>
<path d="M13.5056 6.56787C9.67575 6.56787 6.56836 9.67505 6.56836 13.5051C6.56836 17.3352 9.67575 20.4424 13.5056 20.4424C17.3357 20.4424 20.4429 17.3352 20.4429 13.5051C20.4429 9.67505 17.3357 6.56787 13.5056 6.56787ZM13.5056 18.0052C11.021 18.0052 9.00559 15.99 9.00559 13.5051C9.00559 11.0203 11.021 9.00511 13.5056 9.00511C15.9905 9.00511 18.0057 11.0203 18.0057 13.5051C18.0057 15.99 15.9905 18.0052 13.5056 18.0052Z" fill="white"/>
<path d="M22.3369 6.29361C22.3369 7.18797 21.6118 7.91314 20.7172 7.91314C19.8228 7.91314 19.0977 7.18797 19.0977 6.29361C19.0977 5.39904 19.8228 4.67407 20.7172 4.67407C21.6118 4.67407 22.3369 5.39904 22.3369 6.29361V6.29361Z" fill="white"/>
</svg>
