<svg width="189" height="40" viewBox="0 0 189 40" fill="none" xmlns="http://www.w3.org/2000/svg">
<path d="M36.4069 29.4264C36.0823 29.4264 35.8117 29.3398 35.5898 29.1612C35.368 28.9827 35.2598 28.7662 35.2598 28.5065V13.328C35.2598 11.5044 36.0715 9.95675 37.6948 8.67429C39.302 7.381 41.25 6.73706 43.5335 6.73706H43.5985C45.882 6.73706 47.8355 7.38641 49.4589 8.67429C51.066 9.95675 51.8723 11.5098 51.8723 13.328V15.7792C51.8723 17.6028 51.066 19.1613 49.4589 20.4491C47.8355 21.7316 45.882 22.3701 43.5985 22.3701H43.5335C41.1742 22.3701 39.1829 21.6883 37.5595 20.3247V28.5065C37.5595 28.7662 37.4405 28.9827 37.2078 29.1612C36.9805 29.3398 36.7154 29.4264 36.4069 29.4264ZM37.5541 15.7792C37.5541 17.0942 38.1385 18.2197 39.302 19.145C40.4654 20.0866 41.8723 20.5574 43.5281 20.5574H43.5931C45.2435 20.5574 46.6504 20.0866 47.8193 19.145C48.9989 18.2143 49.5887 17.0942 49.5887 15.7792V13.328C49.5887 12.013 48.9989 10.8875 47.8193 9.96216C46.6558 9.03143 45.2435 8.57147 43.5931 8.57147H43.5281C41.8777 8.57147 40.4708 9.03684 39.302 9.96216C38.1385 10.8929 37.5541 12.013 37.5541 13.328V15.7792Z" fill="white"/>
<path d="M56.7526 22.5864C56.4442 22.5864 56.1682 22.4998 55.9356 22.3213C55.7137 22.1319 55.6055 21.9154 55.6055 21.6665V13.4685C55.6055 11.6341 56.4226 10.0648 58.0622 8.76071C59.6855 7.46742 61.6444 6.82349 63.9442 6.82349H65.3403C65.6487 6.82349 65.9247 6.91007 66.1574 7.08864C66.3792 7.26721 66.4875 7.48366 66.4875 7.7434C66.4875 8.00314 66.3792 8.21959 66.1574 8.39816C65.9193 8.57673 65.6487 8.66331 65.3403 8.66331H63.9442C62.2775 8.66331 60.8544 9.13409 59.6747 10.0756C58.4951 11.0172 57.9052 12.1481 57.9052 13.4793V21.6773C57.9052 21.9263 57.797 22.1427 57.5752 22.3321C57.3479 22.4998 57.0773 22.5864 56.7526 22.5864Z" fill="white"/>
<path d="M76.7479 22.5865C74.4481 22.5865 72.4838 21.9317 70.8659 20.6276C69.2317 19.3343 68.4092 17.7705 68.4092 15.9361V13.4685C68.4092 11.6341 69.2263 10.0703 70.8659 8.77698C72.4893 7.47287 74.4481 6.81812 76.7479 6.81812H76.8128C79.1126 6.81812 81.0769 7.47287 82.6949 8.77698C84.3291 10.0703 85.1516 11.6341 85.1516 13.4685V15.9361C85.1516 17.7705 84.3345 19.3343 82.6949 20.6276C81.0715 21.9317 79.1126 22.5865 76.8128 22.5865H76.7479ZM70.709 15.9415C70.709 17.2726 71.2988 18.4036 72.4784 19.3451C73.6581 20.2867 75.0812 20.7575 76.7479 20.7575H76.8128C78.4795 20.7575 79.9027 20.2867 81.0823 19.3451C82.262 18.4036 82.8518 17.2726 82.8518 15.9415V13.4739C82.8518 12.1482 82.262 11.0118 81.0823 10.0703C79.9027 9.12872 78.4795 8.65794 76.8128 8.65794H76.7479C75.0812 8.65794 73.6581 9.12872 72.4784 10.0703C71.2988 11.0118 70.709 12.1428 70.709 13.4739V15.9415Z" fill="white"/>
<path d="M88.6039 2.09964C88.2522 2.09964 87.9383 2.00224 87.6732 1.80203C87.4243 1.60181 87.2998 1.35289 87.2998 1.06069C87.2998 0.779302 87.4243 0.530385 87.6732 0.319347C87.9383 0.119131 88.2468 0.0217285 88.6039 0.0217285H103.203C103.571 0.0217285 103.88 0.119131 104.134 0.319347C104.399 0.530385 104.535 0.779302 104.535 1.06069C104.535 1.35289 104.399 1.60181 104.134 1.80203C103.885 2.00224 103.571 2.09964 103.203 2.09964H97.2078V21.5476C97.2078 21.829 97.0833 22.0779 96.8344 22.289C96.5855 22.4892 96.2716 22.5866 95.9037 22.5866C95.5519 22.5866 95.2381 22.4892 94.9729 22.289C94.724 22.0779 94.5942 21.829 94.5942 21.5476V2.09964H88.6039Z" fill="white"/>
<path d="M114.063 22.5864C111.764 22.5864 109.799 21.9317 108.181 20.6276C106.547 19.3343 105.725 17.7704 105.725 15.936V13.4685C105.725 11.6341 106.542 10.0648 108.181 8.76071C109.805 7.46742 111.764 6.82349 114.063 6.82349H114.128C116.428 6.82349 118.398 7.47284 120.032 8.76071C121.655 10.0648 122.467 11.6341 122.467 13.4685V21.6665C122.467 21.9154 122.359 22.1319 122.137 22.3213C121.899 22.4998 121.628 22.5864 121.32 22.5864C120.995 22.5864 120.725 22.4998 120.503 22.3213C120.281 22.1319 120.173 21.9154 120.173 21.6665V20.5193C118.522 21.8938 116.509 22.581 114.134 22.581H114.063V22.5864ZM108.024 15.9414C108.024 17.2726 108.614 18.4035 109.794 19.3451C110.974 20.2867 112.397 20.7574 114.063 20.7574H114.128C115.795 20.7574 117.218 20.2867 118.398 19.3451C119.577 18.4035 120.167 17.2726 120.167 15.9414V13.4739C120.167 12.1481 119.577 11.0118 118.398 10.0702C117.218 9.12868 115.795 8.6579 114.128 8.6579H114.063C112.397 8.6579 110.974 9.12868 109.794 10.0702C108.614 11.0118 108.024 12.1427 108.024 13.4739V15.9414Z" fill="white"/>
<path d="M128.241 22.5864C127.932 22.5864 127.657 22.4998 127.424 22.3213C127.202 22.1319 127.094 21.9154 127.094 21.6665V13.4685C127.094 11.6341 127.911 10.0648 129.55 8.76071C131.174 7.46742 133.133 6.82349 135.432 6.82349H136.829C137.137 6.82349 137.413 6.91007 137.646 7.08864C137.868 7.26721 137.976 7.48366 137.976 7.7434C137.976 8.00314 137.868 8.21959 137.646 8.39816C137.408 8.57673 137.137 8.66331 136.829 8.66331H135.432C133.766 8.66331 132.343 9.13409 131.163 10.0756C129.983 11.0172 129.394 12.1481 129.394 13.4793V21.6773C129.394 21.9263 129.285 22.1427 129.063 22.3321C128.842 22.4998 128.566 22.5864 128.241 22.5864Z" fill="white"/>
<path d="M149.566 22.3592C147.294 22.3592 145.356 21.7206 143.749 20.4382C142.142 19.1557 141.336 17.6135 141.336 15.8007V13.3494C141.336 11.5367 142.142 9.99447 143.749 8.71201C145.356 7.42954 147.294 6.79102 149.566 6.79102H149.631C151.904 6.79102 153.841 7.42954 155.448 8.71201C157.072 9.99447 157.884 11.5367 157.884 13.3494V22.7975C157.884 24.6048 157.072 26.1524 155.448 27.4349C153.841 28.7174 151.904 29.3559 149.631 29.3559H149.566C147.986 29.3559 146.536 29.0258 145.21 28.3656C143.885 27.7055 142.873 26.8072 142.18 25.6654C142.034 25.4436 142.012 25.2109 142.115 24.9782C142.218 24.7455 142.407 24.5669 142.689 24.4479C142.97 24.3397 143.262 24.3288 143.571 24.41C143.863 24.4912 144.079 24.6427 144.215 24.87C144.718 25.6925 145.448 26.3472 146.406 26.8288C147.364 27.2996 148.419 27.5323 149.566 27.5323H149.631C151.282 27.5323 152.689 27.0669 153.858 26.1416C155.005 25.2271 155.584 24.107 155.584 22.7921V20.3083C153.96 21.6719 151.98 22.3537 149.631 22.3537H149.566V22.3592ZM143.614 15.7953C143.614 17.0994 144.198 18.2196 145.362 19.1449C146.525 20.0756 147.927 20.5356 149.566 20.5356H149.631C151.282 20.5356 152.689 20.0702 153.858 19.1449C155.005 18.2141 155.584 17.0994 155.584 15.7953V13.344C155.584 12.0399 155.01 10.9252 153.858 9.99447C152.694 9.06374 151.282 8.60378 149.631 8.60378H149.566C147.932 8.60378 146.531 9.06915 145.362 9.99447C144.198 10.9252 143.614 12.0399 143.614 13.344V15.7953Z" fill="white"/>
<path d="M167.922 22.5866C165.622 22.5866 163.658 21.9318 162.04 20.6277C160.4 19.3344 159.583 17.7706 159.583 15.9362V13.4524C159.583 11.5585 160.33 9.9784 161.818 8.70676C163.306 7.43512 165.167 6.802 167.391 6.802H167.456C169.68 6.802 171.542 7.43512 173.03 8.70676C174.518 9.9784 175.265 11.5585 175.265 13.4524V14.7024C175.265 14.9513 175.151 15.1624 174.935 15.3355C174.713 15.5249 174.442 15.6169 174.118 15.6169H161.888V15.9362C161.888 17.2673 162.478 18.3983 163.658 19.3398C164.837 20.2814 166.26 20.7522 167.927 20.7522H167.992C170.01 20.7522 171.628 20.0974 172.835 18.7933C173.025 18.5823 173.284 18.4578 173.609 18.4253C173.917 18.3875 174.204 18.447 174.469 18.6039C174.718 18.7554 174.87 18.9556 174.913 19.2046C174.956 19.4643 174.886 19.6916 174.691 19.8918C173.896 20.7522 172.916 21.4124 171.747 21.8831C170.579 22.3539 169.329 22.5866 167.987 22.5866H167.922ZM161.888 13.7717H172.97V13.4524C172.97 12.0671 172.456 10.92 171.423 10.0163C170.378 9.1126 169.058 8.65806 167.462 8.65806H167.397C165.806 8.65806 164.491 9.1126 163.457 10.0163C162.408 10.92 161.888 12.0671 161.888 13.4524V13.7717V13.7717Z" fill="white"/>
<path d="M185.709 22.5865C183.436 22.5865 181.499 21.948 179.892 20.6655C178.285 19.3831 177.479 17.8409 177.479 16.0281V0.898266C177.479 0.649349 177.587 0.43831 177.809 0.265151C178.03 0.0865798 178.301 0 178.626 0C178.934 0 179.199 0.0865798 179.421 0.265151C179.643 0.443722 179.751 0.65476 179.751 0.898266V6.87769H184.372C184.681 6.87769 184.946 6.96427 185.168 7.14284C185.39 7.32141 185.498 7.53786 185.498 7.7976C185.498 8.04651 185.39 8.25755 185.168 8.43071C184.946 8.60928 184.681 8.69586 184.372 8.69586H179.751V16.0281C179.751 17.3322 180.336 18.4523 181.499 19.3777C182.662 20.3084 184.064 20.7683 185.704 20.7683H187.073C187.397 20.7683 187.668 20.8549 187.89 21.0335C188.112 21.2121 188.22 21.4231 188.22 21.6666C188.22 21.9263 188.106 22.1428 187.89 22.3214C187.668 22.4999 187.397 22.5865 187.073 22.5865H185.709V22.5865Z" fill="white"/>
<path d="M35.8821 37.5972H35.249V32.0994H35.8821V34.4857H41.2826V32.0994H41.9157V37.6026H41.2826V35.0431H35.8821V37.5972Z" fill="white"/>
<path d="M42.4355 37.5972L45.5903 32.094H46.5535L49.7083 37.5972H48.9723L48.1931 36.2174H43.9128L43.1336 37.5972H42.4355ZM47.8738 35.6654L46.0665 32.4944L44.2591 35.6654H47.8738Z" fill="white"/>
<path d="M50.9202 37.1697H50.9743L55.7903 32.094H57.0079V37.5972H56.3748V32.5215H56.1367L51.3152 37.5972H50.2871V32.0994H50.9202V37.1697ZM55.6118 30.5842C55.6118 30.844 55.509 31.8992 53.7882 31.8992H53.0793C51.51 31.8992 51.2557 30.9251 51.2557 30.5842H51.8888C51.8888 30.7899 52.0025 31.423 53.0901 31.423H53.7828C54.8704 31.423 54.9841 30.7899 54.9841 30.5842H55.6118Z" fill="white"/>
<path d="M65.0108 37.0452H65.5087V39.0907H64.9134V37.6026H58.4849V39.0907H57.8896V37.0452H58.2143C58.7067 36.726 59.0044 36.3147 59.0044 35.6329V32.0994H65.0108V37.0452ZM64.3777 32.6513H59.6321V35.4814C59.6321 36.0983 59.4589 36.7476 58.9665 37.0452H64.3777V32.6513Z" fill="white"/>
<path d="M66.3584 32.0994H71.7534V32.6567H66.9915V34.4803H71.6289V35.0377H66.9915V37.0507H71.7534V37.608H66.3584V32.0994V32.0994Z" fill="white"/>
<path d="M74.1614 32.0994L77.2458 36.7909L80.314 32.0994H81.6668V37.6026H81.0337V32.5431H80.682L77.4027 37.6026H77.0781L73.7989 32.5431H73.4417V37.6026H72.8086V32.0994H74.1614Z" fill="white"/>
<path d="M85.5195 32.0994H90.0433C91.499 32.0994 92.1645 32.5647 92.1645 33.5117C92.1645 34.3613 91.6884 34.621 91.4016 34.7022C91.6018 34.74 92.3377 35.0052 92.3377 35.9846C92.3377 37.2076 91.6018 37.6026 90.2003 37.6026H85.5195V32.0994V32.0994ZM86.1527 34.4424H90.2922C91.1148 34.4424 91.5368 34.2693 91.5368 33.5712C91.5368 32.9706 91.2013 32.6513 90.2922 32.6513H86.1527V34.4424ZM86.1527 37.0452H90.4492C91.2717 37.0452 91.71 36.7422 91.71 35.9846C91.71 35.2541 91.2284 34.9998 90.3951 34.9998H86.1527V37.0452Z" fill="white"/>
<path d="M92.8457 37.5972L96.0005 32.094H96.9637L100.118 37.5972H99.3825L98.6033 36.2174H94.323L93.5437 37.5972H92.8457ZM98.284 35.6654L96.4766 32.4944L94.6693 35.6654H98.284Z" fill="white"/>
<path d="M101.488 37.0452H105.146V32.0994H105.779V37.0452H109.437V32.0994H110.07V37.6026H100.86V32.0994H101.493V37.0452H101.488Z" fill="white"/>
<path d="M111.877 37.1697H111.931L116.747 32.094H117.965V37.5972H117.332V32.5215H117.094L112.272 37.5972H111.244V32.0994H111.877V37.1697Z" fill="white"/>
<path d="M125.482 32.0994L122.625 34.6859L125.85 37.6026H125.006L122.078 34.9565L119.151 37.6026H118.307L121.532 34.6859L118.718 32.0994H119.513L122.073 34.4316L124.632 32.0994H125.482V32.0994Z" fill="white"/>
<path d="M129.826 37.5972H129.193V32.0994H129.826V34.4533H130.844L134.691 32.0994H135.795L131.499 34.7238L135.898 37.6026H134.794L130.865 35.0106H129.821V37.5972H129.826Z" fill="white"/>
<path d="M137.825 32.6676V36.2985C137.825 37.2726 137.289 37.5972 136.44 37.5972H136.186V37.0399H136.521C136.819 37.0399 137.197 36.8884 137.197 36.2931V32.094H143.426V37.5972H142.793V32.6676H137.825V32.6676Z" fill="white"/>
<path d="M145.01 37.1697H145.064L149.88 32.094H151.098V37.5972H150.465V32.5215H150.227L145.405 37.5972H144.377V32.0994H145.01V37.1697Z" fill="white"/>
<path d="M152.11 32.0994H157.505V32.6567H152.743V34.4803H157.381V35.0377H152.743V37.0507H157.505V37.608H152.11V32.0994Z" fill="white"/>
<path d="M159.28 37.5972H158.646V32.0994H159.28V34.4857H164.68V32.0994H165.313V37.6026H164.68V35.0431H159.28V37.5972Z" fill="white"/>
<path d="M172.515 32.0994V32.6567H169.545V37.6026H168.912V32.6567H165.957V32.0994H172.515V32.0994Z" fill="white"/>
<path d="M178.09 37.5972H175.422C173.772 37.5972 173.16 37.121 173.16 35.7087V33.9987C173.16 32.5864 173.701 32.0344 175.422 32.0344H178.09C179.562 32.0344 180.281 32.397 180.281 33.9987V35.7141C180.281 37.2833 179.708 37.5972 178.09 37.5972ZM178.084 32.5864H175.417C174.275 32.5864 173.793 32.8786 173.793 33.95V35.7141C173.793 36.7693 174.232 37.0452 175.417 37.0452H178.084C179.367 37.0452 179.654 36.7855 179.654 35.7141V33.9554C179.654 32.8678 179.291 32.5864 178.084 32.5864Z" fill="white"/>
<path d="M181.244 32.0994H185.768C187.224 32.0994 187.889 32.5647 187.889 33.5117C187.889 34.3613 187.413 34.621 187.126 34.7022C187.326 34.74 188.062 35.0052 188.062 35.9846C188.062 37.2076 187.326 37.6026 185.925 37.6026H181.244V32.0994V32.0994ZM181.877 34.4424H186.017C186.839 34.4424 187.261 34.2693 187.261 33.5712C187.261 32.9706 186.926 32.6513 186.017 32.6513H181.877V34.4424ZM181.877 37.0452H186.174C186.996 37.0452 187.435 36.7422 187.435 35.9846C187.435 35.2541 186.953 34.9998 186.12 34.9998H181.877V37.0452Z" fill="white"/>
<path d="M14.7619 10.5626C17.6082 10.5626 19.9134 12.8678 19.9134 15.7141C19.9134 18.5604 17.6082 20.8656 14.7619 20.8656C11.9156 20.8656 9.61042 18.5604 9.61042 15.7141C9.61042 12.8678 11.9156 10.5626 14.7619 10.5626ZM14.7619 8.83643C10.9686 8.83643 7.88965 11.9208 7.88965 15.7087C7.88965 19.4966 10.9741 22.581 14.7619 22.581C18.5498 22.581 21.6342 19.4966 21.6342 15.7087C21.6342 11.9208 18.5498 8.83643 14.7619 8.83643Z" fill="white"/>
<path d="M26.0711 24.2314L21.8125 20.0972C21.1956 21.082 20.3622 21.9153 19.3828 22.5376L23.6739 26.6989C24.0094 27.0236 24.4423 27.1859 24.8752 27.1859C25.3244 27.1859 25.7735 27.0127 26.1144 26.661C26.7746 25.9846 26.7529 24.8969 26.0711 24.2314Z" fill="white"/>
<path d="M18.366 24.3017C17.2567 24.7725 16.0392 25.0268 14.7621 25.0268C9.6485 25.0268 5.50349 20.8818 5.50349 15.7682C5.50349 10.6546 9.6485 6.50956 14.7621 6.50956C19.8757 6.50956 24.0208 10.6546 24.0208 15.7682C24.0208 17.0669 23.7502 18.3007 23.2686 19.4208L23.9125 20.0809C24.5294 18.7714 24.8757 17.3104 24.8757 15.7736C24.8757 10.1946 20.3357 5.64917 14.7513 5.64917C9.1669 5.64917 4.6377 10.1838 4.6377 15.7682C4.6377 21.3526 9.17773 25.8926 14.7621 25.8926C16.2881 25.8926 17.7329 25.5517 19.0316 24.9457L18.366 24.3017Z" fill="white"/>
<path d="M20.0973 25.9739C18.5119 26.7964 16.7153 27.2672 14.8052 27.2672C8.45777 27.2672 3.31168 22.1211 3.31168 15.7737C3.31168 9.42631 8.45777 4.28022 14.8052 4.28022C21.1525 4.28022 26.2986 9.4209 26.2986 15.7683C26.2986 17.7109 25.817 19.5399 24.9621 21.1471L27.3971 23.6254C28.4036 21.9371 29.6103 19.1016 29.6103 15.1785C29.6103 8.44687 25.0324 4.73476 22.9328 3.27914C20.8333 1.82352 17.3917 0.746679 14.8052 0.854903C12.2186 0.746679 8.77703 1.82352 6.67747 3.27914C4.57791 4.73476 0 8.44687 0 15.173C0 21.8992 3.55519 25.4544 3.55519 25.4544L14.8052 39.778L23.2575 29.0204L20.0973 25.9739Z" fill="white"/>
<path d="M6.61793 15.2271H3.03027V16.0063H6.61793V15.2271Z" fill="white"/>
<path d="M26.5798 15.2271H22.9922V16.0063H26.5798V15.2271Z" fill="white"/>
<path d="M15.1952 4.06372H14.416V7.65137H15.1952V4.06372Z" fill="white"/>
<path d="M15.1952 23.9446H14.416V27.5322H15.1952V23.9446Z" fill="white"/>
</svg>
