<svg width="10" height="13" viewBox="0 0 10 13" fill="none" xmlns="http://www.w3.org/2000/svg">
<path d="M6.78728 8.39043C6.25183 8.66509 5.6451 8.8223 5 8.8223C2.85636 8.8223 1.11842 7.10387 1.11842 4.9843C1.11842 2.86473 2.85636 1.14631 5 1.14631C7.14364 1.14631 8.88158 2.86293 8.88158 4.9825C8.88158 5.6312 8.71893 6.24195 8.43019 6.77862L9.25256 7.60621C9.59247 7.04244 10 6.09559 10 4.78554C10 2.53767 8.45395 1.2981 7.74488 0.812022C7.03582 0.325948 5.87354 -0.0336378 5 0.00250154C4.12646 -0.0336378 2.96418 0.325948 2.25512 0.812022C1.54605 1.2981 0 2.53767 0 4.78373C0 7.02979 1.20066 8.21696 1.20066 8.21696L5 13L7.85453 9.40775L6.78728 8.39043Z" fill="white"/>
</svg>
